<?xml version="1.0" encoding="UTF-8" standalone="no"?>
<!DOCTYPE svg PUBLIC "-//W3C//DTD SVG 1.0//EN" "http://www.w3.org/TR/2001/PR-SVG-20010719/DTD/svg10.dtd">
<svg width="33cm" height="14cm" viewBox="133 74 647 277" xmlns="http://www.w3.org/2000/svg" xmlns:xlink="http://www.w3.org/1999/xlink">
  <rect style="fill: none; fill-opacity:0; stroke-width: 2; stroke: #000000" x="135" y="169" width="544" height="180"/>
  <g>
    <rect style="fill: #e9e9e9" x="179.5" y="214" width="133.8" height="18"/>
    <rect style="fill: none; fill-opacity:0; stroke-width: 2; stroke: #000000" x="179.5" y="214" width="133.8" height="18"/>
    <text font-size="11.2" style="fill: #000000;text-anchor:middle;font-family:sans-serif;font-style:normal;font-weight:700" x="246.4" y="228">Funded Paper</text>
    <rect style="fill: #e9e9e9" x="179.5" y="232" width="133.8" height="68"/>
    <rect style="fill: none; fill-opacity:0; stroke-width: 2; stroke: #000000" x="179.5" y="232" width="133.8" height="68"/>
    <polygon style="fill: #000000" points="182.5,242 184.5,245 186.5,242 184.5,239 "/>
    <text font-size="12.8" style="fill: #000000;text-anchor:start;font-family:monospace;font-style:normal;font-weight:700" x="188.5" y="248">Id</text>
    <text font-size="12.8" style="fill: #000000;text-anchor:start;font-family:monospace;font-style:normal;font-weight:700" x="260.1" y="248">Guid</text>
    <polygon style="fill: #000000" points="182.5,258 184.5,261 186.5,258 184.5,255 "/>
    <text font-size="12.8" style="fill: #000000;text-anchor:start;font-family:monospace;font-style:normal;font-weight:700" x="188.5" y="264">PaperId</text>
    <text font-size="12.8" style="fill: #000000;text-anchor:start;font-family:monospace;font-style:normal;font-weight:700" x="260.1" y="264">Paper</text>
    <polygon style="fill: #000000" points="182.5,274 184.5,277 186.5,274 184.5,271 "/>
    <text font-size="12.8" style="fill: #000000;text-anchor:start;font-family:monospace;font-style:normal;font-weight:700" x="188.5" y="280">FunderId</text>
    <text font-size="12.8" style="fill: #000000;text-anchor:start;font-family:monospace;font-style:normal;font-weight:700" x="260.1" y="280">Funder</text>
    <ellipse style="fill: none; fill-opacity:0; stroke-width: 0.2; stroke: #000000" cx="184.5" cy="290" rx="2" ry="2"/>
    <text font-size="12.8" style="fill: #000000;text-anchor:start;font-family:monospace;font-style:normal;font-weight:normal" x="188.5" y="296">Award</text>
    <text font-size="12.8" style="fill: #000000;text-anchor:start;font-family:monospace;font-style:normal;font-weight:normal" x="260.1" y="296">String</text>
  </g>
  <g>
    <rect style="fill: #e9e9e9" x="412" y="225" width="210.8" height="18"/>
    <rect style="fill: none; fill-opacity:0; stroke-width: 2; stroke: #000000" x="412" y="225" width="210.8" height="18"/>
    <text font-size="11.2" style="fill: #000000;text-anchor:middle;font-family:sans-serif;font-style:normal;font-weight:700" x="517.4" y="239">Funder</text>
    <rect style="fill: #e9e9e9" x="412" y="243" width="210.8" height="68"/>
    <rect style="fill: none; fill-opacity:0; stroke-width: 2; stroke: #000000" x="412" y="243" width="210.8" height="68"/>
    <polygon style="fill: #000000" points="415,253 417,256 419,253 417,250 "/>
    <text font-size="12.8" style="fill: #000000;text-anchor:start;font-family:monospace;font-style:normal;font-weight:700" x="421" y="259">Id</text>
    <text font-size="12.8" style="fill: #000000;text-anchor:start;font-family:monospace;font-style:normal;font-weight:700" x="531.1" y="259">Guid</text>
    <ellipse style="fill: #000000" cx="417" cy="269" rx="2" ry="2"/>
    <text font-size="12.8" style="fill: #000000;text-anchor:start;font-family:monospace;font-style:normal;font-weight:normal" x="421" y="275">DOI</text>
    <text font-size="12.8" style="fill: #000000;text-anchor:start;font-family:monospace;font-style:normal;font-weight:normal" x="531.1" y="275">String</text>
    <ellipse style="fill: #000000" cx="417" cy="285" rx="2" ry="2"/>
    <text font-size="12.8" style="fill: #000000;text-anchor:start;font-family:monospace;font-style:normal;font-weight:normal" x="421" y="291">Name</text>
    <text font-size="12.8" style="fill: #000000;text-anchor:start;font-family:monospace;font-style:normal;font-weight:normal" x="531.1" y="291">String</text>
    <ellipse style="fill: none; fill-opacity:0; stroke-width: 0.2; stroke: #000000" cx="417" cy="301" rx="2" ry="2"/>
    <text font-size="12.8" style="fill: #000000;text-anchor:start;font-family:monospace;font-style:normal;font-weight:normal" x="421" y="307">InstitutionId</text>
    <text font-size="12.8" style="fill: #000000;text-anchor:start;font-family:monospace;font-style:normal;font-weight:normal" x="531.1" y="307">Institution</text>
  </g>
  <g>
    <polyline style="fill: none; fill-opacity:0; stroke-width: 2; stroke: #000000" points="412,269 383.65,269 383.65,242 313.3,242 "/>
    <line style="fill: none; fill-opacity:0; stroke-width: 2; stroke: #000000" x1="323.3" y1="242" x2="313.3" y2="237"/>
    <line style="fill: none; fill-opacity:0; stroke-width: 2; stroke: #000000" x1="323.3" y1="242" x2="313.3" y2="247"/>
    <text font-size="9.6" style="fill: #000000;text-anchor:end;font-family:monospace;font-style:normal;font-weight:normal" x="408" y="265">1</text>
    <text font-size="9.6" style="fill: #000000;text-anchor:start;font-family:monospace;font-style:normal;font-weight:normal" x="317.3" y="238">n</text>
  </g>
  <g>
    <rect style="fill: #ffffff" x="205" y="74" width="72.2" height="18"/>
    <rect style="fill: none; fill-opacity:0; stroke-width: 2; stroke: #000000" x="205" y="74" width="72.2" height="18"/>
    <text font-size="11.2" style="fill: #000000;text-anchor:middle;font-family:sans-serif;font-style:normal;font-weight:700" x="241.1" y="88">Paper</text>
    <rect style="fill: #ffffff" x="205" y="92" width="72.2" height="20"/>
    <rect style="fill: none; fill-opacity:0; stroke-width: 2; stroke: #000000" x="205" y="92" width="72.2" height="20"/>
    <polygon style="fill: #000000" points="208,102 210,105 212,102 210,99 "/>
    <text font-size="12.8" style="fill: #000000;text-anchor:start;font-family:monospace;font-style:normal;font-weight:700" x="214" y="108">Id</text>
    <text font-size="12.8" style="fill: #000000;text-anchor:start;font-family:monospace;font-style:normal;font-weight:700" x="239.4" y="108">Guid</text>
  </g>
  <g>
    <polyline style="fill: none; fill-opacity:0; stroke-width: 2; stroke: #000000" points="241.1,112 241.1,163 246.4,163 246.4,214 "/>
    <line style="fill: none; fill-opacity:0; stroke-width: 2; stroke: #000000" x1="246.4" y1="204" x2="241.4" y2="214"/>
    <line style="fill: none; fill-opacity:0; stroke-width: 2; stroke: #000000" x1="246.4" y1="204" x2="251.4" y2="214"/>
    <text font-size="9.6" style="fill: #000000;text-anchor:start;font-family:monospace;font-style:normal;font-weight:normal" x="245.1" y="124">1</text>
    <text font-size="9.6" style="fill: #000000;text-anchor:start;font-family:monospace;font-style:normal;font-weight:normal" x="250.4" y="210">n</text>
  </g>
  <g>
    <rect style="fill: #ffffff" x="704.5" y="239" width="76.1" height="18"/>
    <rect style="fill: none; fill-opacity:0; stroke-width: 2; stroke: #000000" x="704.5" y="239" width="76.1" height="18"/>
    <text font-size="11.2" style="fill: #000000;text-anchor:middle;font-family:sans-serif;font-style:normal;font-weight:700" x="742.55" y="253">Institution</text>
    <rect style="fill: #ffffff" x="704.5" y="257" width="76.1" height="20"/>
    <rect style="fill: none; fill-opacity:0; stroke-width: 2; stroke: #000000" x="704.5" y="257" width="76.1" height="20"/>
    <polygon style="fill: #000000" points="707.5,267 709.5,270 711.5,267 709.5,264 "/>
    <text font-size="12.8" style="fill: #000000;text-anchor:start;font-family:monospace;font-style:normal;font-weight:700" x="713.5" y="273">Id</text>
    <text font-size="12.8" style="fill: #000000;text-anchor:start;font-family:monospace;font-style:normal;font-weight:700" x="738.9" y="273">Guid</text>
  </g>
  <g>
    <polyline style="fill: none; fill-opacity:0; stroke-width: 2; stroke: #000000" points="704.5,267 663.65,267 663.65,285 622.8,285 "/>
    <line style="fill: none; fill-opacity:0; stroke-width: 2; stroke: #000000" x1="632.8" y1="285" x2="622.8" y2="280"/>
    <line style="fill: none; fill-opacity:0; stroke-width: 2; stroke: #000000" x1="632.8" y1="285" x2="622.8" y2="290"/>
    <text font-size="9.6" style="fill: #000000;text-anchor:end;font-family:monospace;font-style:normal;font-weight:normal" x="700.5" y="263">1</text>
    <text font-size="9.6" style="fill: #000000;text-anchor:start;font-family:monospace;font-style:normal;font-weight:normal" x="626.8" y="281">n</text>
  </g>
</svg>
